<svg width="178" height="35" viewBox="0 0 178 35" fill="none" xmlns="http://www.w3.org/2000/svg">
<path d="M10.0547 34.4688C8.35156 34.4688 6.78125 34.0312 5.34375 33.1562C3.92188 32.2812 2.78125 31.1172 1.92188 29.6641C1.07812 28.1953 0.65625 26.5859 0.65625 24.8359V22.6328C0.65625 22.4609 0.734375 22.375 0.890625 22.375H6.28125C6.40625 22.375 6.46875 22.4609 6.46875 22.6328V24.8359C6.46875 25.8828 6.82031 26.7891 7.52344 27.5547C8.22656 28.3047 9.07031 28.6797 10.0547 28.6797C11.0547 28.6797 11.9062 28.2969 12.6094 27.5312C13.3125 26.75 13.6641 25.8516 13.6641 24.8359C13.6641 23.6641 12.8984 22.6406 11.3672 21.7656C11.1172 21.6094 10.7891 21.4219 10.3828 21.2031C9.99219 20.9688 9.52344 20.7031 8.97656 20.4062C8.42969 20.1094 7.89844 19.8203 7.38281 19.5391C6.86719 19.2422 6.36719 18.9609 5.88281 18.6953C4.13281 17.6641 2.82812 16.375 1.96875 14.8281C1.125 13.2656 0.703125 11.5156 0.703125 9.57812C0.703125 7.79688 1.14062 6.1875 2.01562 4.75C2.89062 3.32812 4.03125 2.20312 5.4375 1.375C6.85938 0.53125 8.39844 0.109375 10.0547 0.109375C11.7578 0.109375 13.3203 0.53125 14.7422 1.375C16.1641 2.23438 17.2969 3.375 18.1406 4.79688C19 6.21875 19.4297 7.8125 19.4297 9.57812V13.5156C19.4297 13.6406 19.3672 13.7031 19.2422 13.7031H13.8516C13.7266 13.7031 13.6641 13.6406 13.6641 13.5156L13.6172 9.57812C13.6172 8.45312 13.2656 7.53906 12.5625 6.83594C11.8594 6.13281 11.0234 5.78125 10.0547 5.78125C9.07031 5.78125 8.22656 6.15625 7.52344 6.90625C6.82031 7.65625 6.46875 8.54688 6.46875 9.57812C6.46875 10.625 6.6875 11.5 7.125 12.2031C7.57812 12.9062 8.39844 13.5781 9.58594 14.2188C9.71094 14.2812 10 14.4375 10.4531 14.6875C10.9062 14.9375 11.4062 15.2188 11.9531 15.5312C12.5156 15.8281 13.0234 16.1016 13.4766 16.3516C13.9297 16.5859 14.2031 16.7266 14.2969 16.7734C15.8906 17.6641 17.1484 18.7578 18.0703 20.0547C19.0078 21.3516 19.4766 22.9453 19.4766 24.8359C19.4766 26.6641 19.0547 28.3047 18.2109 29.7578C17.3516 31.2109 16.2109 32.3594 14.7891 33.2031C13.3672 34.0469 11.7891 34.4688 10.0547 34.4688ZM21.1875 33.7656L27.1406 0.789062C27.1719 0.664062 27.25 0.601562 27.375 0.601562H34.3359C34.4609 0.601562 34.5391 0.664062 34.5703 0.789062L40.2891 33.7656C40.3047 33.9219 40.2422 34 40.1016 34H34.7812C34.625 34 34.5391 33.9219 34.5234 33.7656L34.0078 30.25H27.4688L26.9531 33.7656C26.9375 33.9219 26.8594 34 26.7188 34H21.375C21.25 34 21.1875 33.9219 21.1875 33.7656ZM30.5859 11.6406L28.4297 25.1172H33.0469L31.0781 11.6406L30.7969 9.85938L30.5859 11.6406ZM48.9141 34H43.4766C43.3516 34 43.2891 33.9219 43.2891 33.7656L43.3828 0.789062C43.3828 0.664062 43.4453 0.601562 43.5703 0.601562H53.2734C55.0078 0.601562 56.6016 1.02344 58.0547 1.86719C59.5078 2.71094 60.6641 3.84375 61.5234 5.26562C62.3984 6.6875 62.8359 8.29688 62.8359 10.0938C62.8359 11.2656 62.6562 12.3281 62.2969 13.2812C61.9375 14.2344 61.5156 15.0391 61.0312 15.6953C60.5625 16.3516 60.1328 16.8359 59.7422 17.1484C61.4766 19.0703 62.3438 21.3281 62.3438 23.9219L62.3906 33.7656C62.3906 33.9219 62.3125 34 62.1562 34H56.7188C56.5938 34 56.5312 33.9531 56.5312 33.8594V23.9219C56.5312 22.7656 56.125 21.7656 55.3125 20.9219C54.5 20.0781 53.5 19.6562 52.3125 19.6562H49.1484L49.1016 33.7656C49.1016 33.9219 49.0391 34 48.9141 34ZM53.2734 6.34375H49.1484V13.8906H53.2734C54.2578 13.8906 55.1328 13.5234 55.8984 12.7891C56.6797 12.0547 57.0703 11.1562 57.0703 10.0938C57.0703 9.07812 56.6953 8.20312 55.9453 7.46875C55.1953 6.71875 54.3047 6.34375 53.2734 6.34375ZM76.6875 34H71.2734C71.1328 34 71.0625 33.9219 71.0625 33.7656V6.39062H64.8281C64.6719 6.39062 64.5938 6.3125 64.5938 6.15625L64.6406 0.789062C64.6406 0.664062 64.7031 0.601562 64.8281 0.601562H83.0625C83.2344 0.601562 83.3203 0.664062 83.3203 0.789062V6.15625C83.3203 6.3125 83.2578 6.39062 83.1328 6.39062H76.8281L76.875 33.7656C76.875 33.9219 76.8125 34 76.6875 34ZM94.5469 34.4688C92.8438 34.4688 91.2734 34.0312 89.8359 33.1562C88.4141 32.2812 87.2656 31.1172 86.3906 29.6641C85.5312 28.1953 85.1016 26.5859 85.1016 24.8359L85.1484 9.625C85.1484 7.84375 85.5781 6.24219 86.4375 4.82031C87.2812 3.38281 88.4219 2.23438 89.8594 1.375C91.2969 0.5 92.8594 0.0625 94.5469 0.0625C96.2969 0.0625 97.8672 0.492188 99.2578 1.35156C100.664 2.21094 101.789 3.36719 102.633 4.82031C103.492 6.25781 103.922 7.85938 103.922 9.625L103.969 24.8359C103.969 26.5859 103.547 28.1875 102.703 29.6406C101.844 31.1094 100.703 32.2812 99.2812 33.1562C97.8594 34.0312 96.2812 34.4688 94.5469 34.4688ZM94.5469 28.6797C95.5156 28.6797 96.3594 28.2891 97.0781 27.5078C97.7969 26.7109 98.1562 25.8203 98.1562 24.8359L98.1094 9.625C98.1094 8.5625 97.7734 7.66406 97.1016 6.92969C96.4297 6.19531 95.5781 5.82812 94.5469 5.82812C93.5625 5.82812 92.7188 6.1875 92.0156 6.90625C91.3125 7.625 90.9609 8.53125 90.9609 9.625V24.8359C90.9609 25.8828 91.3125 26.7891 92.0156 27.5547C92.7188 28.3047 93.5625 28.6797 94.5469 28.6797ZM113.227 34H107.789C107.664 34 107.602 33.9219 107.602 33.7656L107.695 0.789062C107.695 0.664062 107.758 0.601562 107.883 0.601562H117.586C119.32 0.601562 120.914 1.02344 122.367 1.86719C123.82 2.71094 124.977 3.84375 125.836 5.26562C126.711 6.6875 127.148 8.29688 127.148 10.0938C127.148 11.2656 126.969 12.3281 126.609 13.2812C126.25 14.2344 125.828 15.0391 125.344 15.6953C124.875 16.3516 124.445 16.8359 124.055 17.1484C125.789 19.0703 126.656 21.3281 126.656 23.9219L126.703 33.7656C126.703 33.9219 126.625 34 126.469 34H121.031C120.906 34 120.844 33.9531 120.844 33.8594V23.9219C120.844 22.7656 120.438 21.7656 119.625 20.9219C118.812 20.0781 117.812 19.6562 116.625 19.6562H113.461L113.414 33.7656C113.414 33.9219 113.352 34 113.227 34ZM117.586 6.34375H113.461V13.8906H117.586C118.57 13.8906 119.445 13.5234 120.211 12.7891C120.992 12.0547 121.383 11.1562 121.383 10.0938C121.383 9.07812 121.008 8.20312 120.258 7.46875C119.508 6.71875 118.617 6.34375 117.586 6.34375ZM136.43 34H130.992C130.836 34 130.758 33.9219 130.758 33.7656L130.805 0.789062C130.805 0.664062 130.867 0.601562 130.992 0.601562H136.383C136.508 0.601562 136.57 0.664062 136.57 0.789062L136.617 33.7656C136.617 33.9219 136.555 34 136.43 34ZM139.219 33.7656L145.172 0.789062C145.203 0.664062 145.281 0.601562 145.406 0.601562H152.367C152.492 0.601562 152.57 0.664062 152.602 0.789062L158.32 33.7656C158.336 33.9219 158.273 34 158.133 34H152.812C152.656 34 152.57 33.9219 152.555 33.7656L152.039 30.25H145.5L144.984 33.7656C144.969 33.9219 144.891 34 144.75 34H139.406C139.281 34 139.219 33.9219 139.219 33.7656ZM148.617 11.6406L146.461 25.1172H151.078L149.109 11.6406L148.828 9.85938L148.617 11.6406ZM177.023 34H161.508C161.383 34 161.32 33.9219 161.32 33.7656L161.367 0.835938C161.367 0.679688 161.445 0.601562 161.602 0.601562H166.945C167.102 0.601562 167.18 0.679688 167.18 0.835938L167.133 28.0938H177.023C177.18 28.0938 177.258 28.1719 177.258 28.3281V33.7656C177.258 33.9219 177.18 34 177.023 34Z" fill="#E8F1F2"/>
</svg>
